HIERARCHY
ROOT root
{
	OFFSET	0	13.1	24.9
	CHANNELS 6  Xposition Yposition Zposition Xrotation Yrotation Zrotation
	JOINT spine_1
	{
		OFFSET	0	9.99999	0
		CHANNELS 3  Xrotation Yrotation Zrotation
		JOINT spine_2
		{
			OFFSET	0	112	-10
			CHANNELS 3  Xrotation Yrotation Zrotation
			JOINT spine_3
			{
				OFFSET	0	206.5	19.3
				CHANNELS 3  Xrotation Yrotation Zrotation
				JOINT spine_4
				{
					OFFSET	0	110.4	14.6
					CHANNELS 3  Xrotation Yrotation Zrotation
					JOINT neck_1
					{
						OFFSET	0	71.8	-50.3
						CHANNELS 3  Xrotation Yrotation Zrotation
						JOINT neck_2
						{
							OFFSET	0	86.2	-25.8
							CHANNELS 3  Xrotation Yrotation Zrotation
							JOINT head_ee
							{
								OFFSET	0	179.8	-8.7
								CHANNELS 3  Xrotation Yrotation Zrotation
								End Site
								{
									OFFSET	1	0	0
								}
							}
						}
					}
					JOINT left_clavicle
					{
						OFFSET	-43.2	22.4	-70.8
						CHANNELS 3  Xrotation Yrotation Zrotation
						JOINT left_shoulder
						{
							OFFSET	-93.9	-5.79999	48.7
							CHANNELS 3  Xrotation Yrotation Zrotation
							JOINT left_elbow
							{
								OFFSET	-291.4	-30.8	15.2
								CHANNELS 3  Xrotation Yrotation Zrotation
								JOINT left_lowarm_twist
								{
									OFFSET	-110.7	-3.89999	13.6
									CHANNELS 3  Xrotation Yrotation Zrotation
									JOINT left_hand
									{
										OFFSET	-110.7	-3.89999	13.6
										CHANNELS 3  Xrotation Yrotation Zrotation
										JOINT left_ee
										{
											OFFSET	-80.8	-5.10001	12.1
											CHANNELS 3  Xrotation Yrotation Zrotation
											End Site
											{
												OFFSET	1	0	0
											}
										}
									}
								}
							}
						}
					}
					JOINT right_clavicle
					{
						OFFSET	43.2	22.4	-70.8
						CHANNELS 3  Xrotation Yrotation Zrotation
						JOINT right_shoulder
						{
							OFFSET	93.9	-5.79999	48.7
							CHANNELS 3  Xrotation Yrotation Zrotation
							JOINT right_elbow
							{
								OFFSET	291.4	-30.8	15.2
								CHANNELS 3  Xrotation Yrotation Zrotation
								JOINT right_lowarm_twist
								{
									OFFSET	110.7	-3.89999	13.6
									CHANNELS 3  Xrotation Yrotation Zrotation
									JOINT right_hand
									{
										OFFSET	110.7	-3.89999	13.6
										CHANNELS 3  Xrotation Yrotation Zrotation
										JOINT right_ee
										{
											OFFSET	80.8	-5.10001	12.1
											CHANNELS 3  Xrotation Yrotation Zrotation
											End Site
											{
												OFFSET	1	0	0
											}
										}
									}
								}
							}
						}
					}
				}
			}
		}
	}
	JOINT left_hip
	{
		OFFSET	-82.8	-127.5	0.300001
		CHANNELS 3  Xrotation Yrotation Zrotation
		JOINT left_knee
		{
			OFFSET	-28.2	-396.7	2.2
			CHANNELS 3  Xrotation Yrotation Zrotation
			JOINT left_ankle
			{
				OFFSET	-11.7	-411.3	35.4
				CHANNELS 3  Xrotation Yrotation Zrotation
				JOINT left_toes
				{
					OFFSET	0	-60	-88.6
					CHANNELS 3  Xrotation Yrotation Zrotation
					JOINT left_foot_ee
					{
						OFFSET	-22.5	-16.5	-42.2
						CHANNELS 3  Xrotation Yrotation Zrotation
						End Site
						{
							OFFSET	1	0	0
						}
					}
				}
			}
		}
	}
	JOINT right_hip
	{
		OFFSET	82.8	-127.5	0.300001
		CHANNELS 3  Xrotation Yrotation Zrotation
		JOINT right_knee
		{
			OFFSET	28.2	-396.7	2.2
			CHANNELS 3  Xrotation Yrotation Zrotation
			JOINT right_ankle
			{
				OFFSET	11.7	-411.3	35.4
				CHANNELS 3  Xrotation Yrotation Zrotation
				JOINT right_toes
				{
					OFFSET	0	-60	-88.6
					CHANNELS 3  Xrotation Yrotation Zrotation
					JOINT right_foot_ee
					{
						OFFSET	22.5	-16.5	-42.2
						CHANNELS 3  Xrotation Yrotation Zrotation
						End Site
						{
							OFFSET	1	0	0
						}
					}
				}
			}
		}
	}
}
MOTION
Frames: 13
Frame Time: 0.02
3413.8 729.475 -1552.23 5.86161 62.796 -2.30805 0.439083 0.291652 -1.75502 0.440706 0.40272 -1.73291 0.428746 0.746128 -1.6151 0.425429 0.481729 -1.71264 -25.5033 18.1106 11.7883 -27.1419 30.0922 20.764 -0.0 0.0 -0.0 1.58612 -1.29787 2.93621 -31.0884 -20.3899 76.7466 1.2052 -30.8369 0.332395 -28.3878 -1.80913 3.10827 -3.15626 16.9364 -12.4777 -0.0 0.0 -0.0 5.482 30.2931 -8.4468 -5.30979 15.5081 -70.3937 0.933555 24.8181 -0.205414 12.8121 -0.272341 1.61057 4.45881 -18.3597 -37.3414 0.0 0.0 0.0 2.02528 0.732988 -5.9855 -30.9724 0.00559414 4.69571 34.3128 19.6954 -4.46369 -15.7959 0.0 0.0 -0.0 0.0 -0.0 -1.4126 8.9067 -3.91849 -13.6326 -0.317144 -2.06314 22.8177 -4.67315 3.07605 38.2071 -0.0 -0.0 0.0 0.0 0.0 
3403.38 735.515 -1555.67 6.85395 62.5414 -3.48311 0.290856 0.227599 -1.49983 0.29205 0.322565 -1.48231 0.283917 0.620207 -1.38444 0.281459 0.393801 -1.465 -26.0793 18.264 12.64 -27.7306 30.1513 21.8228 -0.0 0.0 -0.0 1.58622 -1.3478 2.93179 -32.6161 -21.1154 77.947 1.13952 -29.4431 0.299416 -28.2716 -1.79873 3.09762 -3.19377 17.0783 -12.6333 -0.0 0.0 -0.0 6.07693 28.5971 -9.93215 -4.4454 16.3016 -69.1097 1.08591 28.2763 -0.273539 12.6162 -0.270906 1.58559 4.45158 -18.109 -37.2301 0.0 0.0 0.0 3.81256 3.44844 -7.41393 -33.5416 -0.107797 5.0736 33.4202 17.3961 -4.33098 -15.65 0.0 0.0 -0.0 0.0 -0.0 -2.8604 7.46343 -3.18257 -14.6107 -0.320896 -2.21317 25.4154 -8.48612 3.38049 39.3696 -0.0 -0.0 0.0 0.0 0.0 
3390.08 732.452 -1560.82 7.71347 61.5436 -4.35508 0.268043 0.324844 -1.38575 0.269017 0.412356 -1.36227 0.259306 0.683962 -1.24823 0.257451 0.478264 -1.34056 -25.7072 18.7292 12.9224 -27.4006 30.8727 22.2238 -0.0 0.0 -0.0 1.50168 -1.61525 2.74188 -34.284 -21.903 78.9765 1.05348 -27.5577 0.258355 -28.0962 -1.78306 3.08149 -3.13594 17.1916 -12.2079 -0.0 0.0 -0.0 6.74972 27.945 -11.473 -3.38675 17.0008 -68.5619 1.19585 30.6409 -0.327618 12.2526 -0.268016 1.53925 4.41872 -18.1619 -36.982 0.0 0.0 0.0 5.94845 6.89816 -9.4647 -37.641 -0.323552 5.66519 31.8898 15.3579 -4.14231 -15.4768 0.0 0.0 -0.0 0.0 -0.0 -4.18916 6.4601 -2.80875 -14.2579 -0.319838 -2.15905 26.92 -9.99052 3.55673 39.8641 -0.0 -0.0 0.0 0.0 0.0 
3381.35 731.352 -1560.94 7.47541 60.5149 -3.45639 0.171445 0.44768 -1.43529 0.172431 0.538096 -1.40391 0.159263 0.817817 -1.26164 0.157558 0.608322 -1.37494 -24.4101 19.8843 11.7144 -26.4284 33.3536 21.4235 -0.0 0.0 -0.0 1.39098 -1.32728 2.55326 -33.8987 -22.356 80.75 0.963393 -25.5117 0.218102 -27.9324 -1.76847 3.06638 -2.97626 17.1274 -11.2473 -0.0 0.0 -0.0 6.71895 26.5193 -11.5582 -2.42429 17.5306 -66.9741 1.37016 34.1644 -0.421069 13.4036 -0.276158 1.68604 4.50568 -18.2907 -37.6989 0.0 0.0 0.0 9.81584 8.83003 -11.8484 -41.903 -0.592255 6.26261 29.4793 14.1146 -3.86884 -15.065 0.0 0.0 -0.0 0.0 -0.0 -5.12269 5.74051 -3.02744 -12.9419 -0.312951 -1.95724 27.336 -9.17202 3.60082 39.7304 -0.0 -0.0 0.0 0.0 0.0 
3369.92 727.534 -1564.56 8.17988 59.3562 -3.79945 -0.0488451 0.44464 -1.40411 -0.047906 0.533078 -1.37298 -0.0606407 0.811206 -1.22932 -0.0622364 0.606896 -1.34199 -23.8451 20.401 11.0587 -26.027 34.5275 20.9695 -0.0 0.0 -0.0 1.29698 -0.981102 2.40374 -33.9929 -22.7516 82.43 0.834578 -22.4613 0.165718 -27.6637 -1.74464 3.04152 -2.79712 17.2829 -10.0509 -0.0 0.0 -0.0 7.16454 26.1227 -12.5757 -1.06229 18.1594 -66.2291 1.56987 37.8683 -0.53856 13.8296 -0.278424 1.7404 4.49655 -19.8181 -37.9372 0.0 0.0 0.0 14.6054 11.2855 -15.8108 -46.1892 -0.906705 6.842 27.6849 11.4926 -3.65001 -14.7544 0.0 0.0 -0.0 0.0 -0.0 -7.04104 5.44669 -2.47779 -12.4537 -0.309218 -1.88243 26.6096 -3.8013 3.51887 38.5993 -0.0 -0.0 0.0 0.0 0.0 
3362.83 731.314 -1563.45 7.33894 58.8482 -2.47204 -0.0502925 0.295318 -1.3774 -0.0493183 0.38236 -1.35583 -0.0581966 0.660181 -1.24446 -0.0600686 0.455376 -1.33308 -23.4301 20.462 10.4811 -25.6381 34.825 20.3407 -0.0 0.0 -0.0 1.16513 0.207584 2.26513 -34.2771 -22.9151 83.5916 0.784961 -21.2483 0.147246 -27.5578 -1.73527 3.03168 -2.74378 17.1809 -9.77525 -0.0 0.0 -0.0 7.34655 25.8894 -12.9991 0.537032 19.0887 -65.8107 1.63971 39.0827 -0.582018 14.1532 -0.279875 1.78171 4.2419 -21.8577 -36.3379 0.0 0.0 0.0 16.9575 9.51551 -16.6707 -45.215 -0.831427 6.71237 25.8722 12.6903 -3.45071 -14.9753 0.0 0.0 -0.0 0.0 -0.0 -7.4725 5.39492 -3.24401 -10.4989 -0.287888 -1.58327 27.1875 -6.16942 3.5801 39.5886 -0.0 -0.0 0.0 0.0 0.0 
3351.03 724.369 -1564.88 7.56341 57.4288 -2.02348 -0.15463 0.473946 -1.39696 -0.15372 0.56187 -1.36398 -0.167076 0.839703 -1.21288 -0.168561 0.637632 -1.33025 -22.4259 20.9875 10.1638 -24.651 35.8191 19.9705 -0.0 0.0 -0.0 1.05611 0.164941 2.05132 -34.494 -23.0925 84.6572 0.753976 -20.4805 0.136211 -27.1771 -1.70176 2.99619 -2.69878 17.4047 -9.37819 -0.0 0.0 -0.0 7.50219 25.9961 -13.33 2.44972 19.3413 -65.0313 1.8401 42.346 -0.712783 14.5793 -0.281429 1.8361 4.57798 -18.8253 -38.3887 0.0 0.0 0.0 19.5933 9.86628 -19.2712 -43.4837 -0.703138 6.47894 25.1318 11.039 -3.3558 -15.8772 0.0 0.0 -0.0 0.0 -0.0 -7.88474 4.80092 -2.97675 -11.058 -0.295032 -1.66876 28.7433 -6.4671 3.75225 39.4115 -0.0 -0.0 0.0 0.0 0.0 
3346.31 722.89 -1563.58 6.71903 57.906 -0.734524 -0.186021 0.293852 -1.33362 -0.185111 0.378111 -1.31222 -0.193598 0.64965 -1.2012 -0.195327 0.451806 -1.28871 -21.9452 20.9612 9.58219 -24.1487 35.9549 19.2489 -0.0 0.0 -0.0 0.993763 0.725951 1.98828 -34.2039 -23.0546 85.2036 0.744819 -20.2521 0.133024 -26.8477 -1.67297 2.96532 -2.57719 17.193 -8.73974 -0.0 0.0 -0.0 7.56652 26.2551 -13.4445 3.603 19.8222 -64.5368 2.00521 44.803 -0.82662 14.0709 -0.279528 1.77119 4.32023 -19.9657 -36.5868 0.0 0.0 0.0 21.3149 9.94316 -20.664 -38.1805 -0.355089 5.74188 23.5898 10.0787 -3.1708 -17.6402 0.0 0.0 -0.0 0.0 -0.0 -7.54937 4.63205 -3.88812 -10.3913 -0.286419 -1.56683 26.7089 -5.74958 3.52651 39.025 -0.0 -0.0 0.0 0.0 0.0 
3332.6 718.807 -1565.27 7.52772 57.4219 -1.03291 -0.365257 0.223509 -1.09639 -0.364636 0.292818 -1.07995 -0.370005 0.519733 -0.990919 -0.371198 0.356723 -1.06056 -21.4246 20.9371 8.45628 -23.674 36.3476 18.0522 -0.0 0.0 -0.0 0.973123 0.848925 1.96128 -34.0588 -23.3716 86.1936 0.666698 -18.2765 0.107246 -26.5179 -1.64431 2.93424 -2.54213 17.659 -8.28094 -0.0 0.0 -0.0 7.58912 26.9307 -13.4228 4.62374 20.1338 -64.4792 2.07961 45.8461 -0.879528 14.0205 -0.279308 1.76476 4.4087 -20.8745 -37.4454 0.0 0.0 0.0 22.6356 9.53981 -22.1381 -32.5529 -0.0621515 4.92877 22.7669 10.2236 -3.07298 -17.6095 0.0 0.0 -0.0 0.0 -0.0 -8.87471 4.15557 -4.4094 -9.82666 -0.278197 -1.48058 28.1981 -2.93286 3.69886 38.8276 -0.0 -0.0 0.0 0.0 0.0 
3326.13 720.677 -1566.19 6.47735 57.9699 1.0358 -0.415073 0.081125 -1.17046 -0.414324 0.155435 -1.16293 -0.417173 0.404472 -1.10135 -0.418796 0.22547 -1.1514 -20.9974 20.8829 7.67887 -23.2479 36.5482 17.1706 -0.0 0.0 -0.0 0.916586 1.15866 1.88497 -33.7581 -23.4397 86.5413 0.633043 -17.4111 0.0969327 -26.2572 -1.62179 2.90956 -2.47819 17.6621 -7.88739 -0.0 0.0 -0.0 7.64856 27.6903 -13.471 4.73153 20.4757 -64.1841 2.1721 47.0904 -0.946585 13.7206 -0.277882 1.72648 4.33148 -21.7301 -36.9998 0.0 0.0 0.0 23.8986 9.22253 -24.2094 -30.0372 0.042641 4.55697 21.4307 9.46304 -2.90916 -18.3211 0.0 0.0 -0.0 0.0 -0.0 -9.06745 3.903 -5.37236 -9.33019 -0.270265 -1.40481 27.9501 -1.4916 3.67817 38.8393 -0.0 -0.0 0.0 0.0 0.0 
3320.46 718.718 -1566.59 4.3573 58.5536 3.5438 -0.304913 -0.0240901 -1.07883 -0.304267 0.0446033 -1.07818 -0.304796 0.275801 -1.04326 -0.306299 0.107586 -1.07372 -20.8035 20.4276 6.59168 -23.0169 36.1624 15.8794 -0.0 0.0 -0.0 0.836356 1.76725 1.79516 -33.3031 -23.3027 86.5343 0.586812 -16.2087 0.0835622 -26.0632 -1.6051 2.89112 -2.4348 17.7173 -7.59321 -0.0 0.0 -0.0 7.74271 28.1018 -13.6322 5.89899 21.0523 -64.2043 2.25558 48.1657 -1.00826 12.5216 -0.270182 1.57353 4.20211 -24.7971 -36.4971 0.0 0.0 0.0 24.1394 8.97922 -25.0826 -23.9517 0.227834 3.64183 21.0468 9.22638 -2.86172 -18.7183 0.0 0.0 -0.0 0.0 -0.0 -9.40897 5.54129 -5.4606 -7.6179 -0.237879 -1.14406 27.8335 0.0534347 3.67501 38.4755 -0.0 -0.0 0.0 0.0 0.0 
3300.4 711.265 -1562.43 5.19883 58.8751 2.90245 -0.532884 -0.0976715 -0.978527 -0.532352 -0.0352104 -0.982758 -0.531419 0.181117 -0.966568 -0.532722 0.0262 -0.98304 -20.6884 20.6987 6.71432 -22.9452 36.6119 16.1008 -0.0 0.0 -0.0 0.841253 1.32308 1.75848 -33.642 -23.4762 87.0373 0.595292 -16.4304 0.0859449 -25.9727 -1.59734 2.8825 -2.40317 17.7217 -7.3975 -0.0 0.0 -0.0 7.40004 28.4956 -12.8358 5.57075 21.047 -63.6991 2.31438 48.8968 -1.05232 13.0859 -0.274205 1.6455 4.19935 -23.1291 -36.2293 0.0 0.0 0.0 25.0071 8.47181 -26.2108 -23.195 0.244032 3.52685 20.5585 9.13581 -2.8015 -19.1256 0.0 0.0 -0.0 0.0 -0.0 -9.88196 4.46407 -5.62409 -8.24557 -0.250655 -1.23953 27.7572 0.962613 3.67355 38.6018 -0.0 -0.0 0.0 0.0 0.0 
3288.83 707.021 -1562.12 4.7309 59.7101 3.60837 -0.577794 0.00208469 -0.981351 -0.577261 0.0645233 -0.97923 -0.578088 0.27843 -0.94103 -0.579301 0.126325 -0.973189 -19.4414 20.429 5.81191 -21.4777 36.3845 14.6278 -0.0 0.0 -0.0 0.152811 1.77258 0.500721 -31.1811 -23.5506 87.8946 0.572394 -15.8307 0.0795831 -25.774 -1.58034 2.86354 -2.19463 17.2028 -6.38369 -0.0 0.0 -0.0 7.37189 29.2005 -12.6938 5.16915 21.7576 -63.7466 2.34309 49.2463 -1.07401 10.6009 -0.251183 1.32895 3.65588 -25.2887 -32.6455 0.0 0.0 0.0 26.0425 6.94299 -26.3126 -21.1707 0.279887 3.2183 19.152 9.11617 -2.6265 -20.556 0.0 0.0 -0.0 0.0 -0.0 -10.0295 5.57978 -5.0054 -9.78556 -0.277565 -1.4743 26.0381 1.23444 3.48203 38.4818 -0.0 -0.0 0.0 0.0 0.0 
